<?xml version="1.0" encoding="utf-8"?>
<!-- Generator: Adobe Illustrator 26.0.1, SVG Export Plug-In . SVG Version: 6.00 Build 0)  -->
<svg version="1.1" id="Layer_1" xmlns="http://www.w3.org/2000/svg" xmlns:xlink="http://www.w3.org/1999/xlink" x="0px" y="0px"
	 viewBox="0 0 157 149" style="enable-background:new 0 0 157 149;" xml:space="preserve">
<g>
	<path d="M69,42.4c1.5,0.1,3-1,3.9-2.1c4-2.1,7.2-4.2,10.3-7.5c0.5,0.1,0,0.8,0.5,0.9c0.6,0.1,0.5-0.3,0.5-0.8c2,0.6,2.4-2.1,4-1.9
		c0.1-0.3-0.2-0.3-0.3-0.3c5.1-3.1,4.9-5.2,5.1-7.3c-0.3-0.4-0.5-1.2-0.8-1.6c-3.9-1.2-5.5,0.5-8.8,1c-2.8,0.5-5,0.8-6.9,1.5
		c-5,1.8-9.9,3.5-14.5,5.5c-4.3,2-16.2,9.6-24.1,17.1c-11.1,10.3-13.5,14.2-0.6,19c2.4,0.8,4.6,1.5,7.9,1.6c0.3,0.5,0.8,0.8,2,0.6
		c9.1,2.7,18,6.6,22.8,12.4c8.7-0.9,17.5-5,24.9-6.6c0,0.3-0.2,0.3-0.5,0.5c0.2,0.3,0.8-0.1,1.2,0c-0.6,0.3-0.5,0.6-1.5,0.5
		c0,0.1,0.3,0.1,0.5,0.1c-7.3,1.3-15.3,5.5-23.4,6.6c-0.1,0.6,0.6,0.5,0.6,1c9.6-1.5,18-4.5,25.2-7.9c-0.6,0.7-0.3,0.7,0.2,1.4
		c-0.9,0.6-2.8,2.1-4.7,2.5c0.5-0.5,0.3-0.8,0.9-1.2c-7.8,1.3-12.7,5.2-20.7,5.8c0,0.8,0,0.8,0.2,1.4c7.2-0.8,12.1-5.1,18.9-6
		c-0.3,0.3-0.7,0.1-0.9,0.6c1,0,1.5-0.6,2.7-0.3c-5.5,3.3-13,5.8-19.8,7.5c1.8,4.9-0.8,13-3.6,16.8c-5.5,6.6-10.8,13.5-18,18
		c0,0.6-0.9,1.3-0.6,1.8c-4.9,3.7-13.8,8.1-20.7,10.9c-0.7,0.3-3.4,1.3-4.6,1.2c-13.6-1.5-25.3-9.1-17.7-23.1c1-1.9,4.5-5.1,6.9-6.9
		c3.4-2.5,7.9-4.6,11.2-6.1l7.2-3.6c0.3,0.6,0.6,0,0.9-0.6c0.5,0.6,0.9,0,0.9-0.6c2,0.1,2.9-1.4,5.1-2.2c0,0.1-0.2,0.1-0.2,0.1
		L57.2,85c0.5,0,0.2,0.1,0.2,0.3c2.2-1.8,5.2-1.7,7.8-3.3c-3.7-2.5-9.4-4.5-14.8-6c-4.7-1.2-10-2.1-14.4-3C27.8,71,24,65.2,21,59.3
		c0.6-1.2-0.2-2.7-0.5-3.8c0-0.6-0.4,0-0.4-0.4c0.7-4,3.4-7.5,4.3-9.7c1.8-2.7,4.5-6.3,8.1-9.4c8.5-7.5,21.4-14.8,28.3-17.8
		c7.3,0.4,11.7-2.9,19-2.4c0.5,0,0.5-0.5,0.9-0.6c1.6,0.6,3.4-0.5,4.5,0.6c8.1-0.2,16.6,7.2,14.8,13.9c-1,3.8-6.4,7.3-9.3,9.7
		c-3.6,3-7.8,5.5-11.7,7.9c-1.8,1.2-1,0.5-2.7,1.8c-0.8,0.2-1.2,0.6-1.8,1.1c-10,1.3-8.5-4.2-9-4.8c0-0.5,1-0.6,1.3-0.5
		C66.9,43.3,69.2,43.7,69,42.4z M63.3,89.9c-12.6,4.5-24.1,10.2-35.7,16.2c-6.3,1.9-10.5,6.7-15.3,10.8c-0.1,0.3,0.4,0.3,0.4,0.6
		c-1.6,0.6-1,5.1-0.8,6.4c0.2-0.8,0.9,0.3,1.2,0.5c-0.1,0-0.3,0-0.5,0.2c0.3,0.6,1.8,0.6,1.8,1.3c0-0.3-0.9-0.2-0.2,0
		c0.3,0.6,0.6-0.5,1.2-0.2c1.8,0.6,3.9,0.8,6.3,1c13.8-5.5,24.4-14.7,33.6-24.9c-0.1-0.5-0.6,0.2-0.6-0.2c0.5-0.6,1-0.3,1.3-0.8
		c-0.1-0.3-0.9-0.1-0.8-0.8c0.5,0.3,0.9-0.1,1.2,0.3c0.6,0,0.5-0.9,1.2-0.8c-5.7,9-13.6,17.2-23.2,22.2c-3.3,3-9.1,3.9-12,6.8
		c0.8,0.6,1.5,0,1.9-0.5c5.1-1.6,10.3-4,15.3-7.3c1.2-0.8,1.8-2.2,2.8-3.1c6-4.8,15-12.3,16.3-18.1c-0.3,0-0.9,0.3-1,0
		c0.6-1,2.1-2.1,1.8-3.3c-1.2,1.3-2.1,3.1-3.9,3.6C59.1,97.1,60.5,93.5,63.3,89.9z M13.1,109.6c0-0.5,0.4-0.1,0.4-0.6
		C13.2,108.8,12.6,109.4,13.1,109.6z M65.3,83.2C47,89.6,28.4,97.6,14.6,107.8c0.1-0.2-1.2,0.8-0.6,1c5.8-4.9,13.3-9.4,20.5-11.2
		c0.2-0.3-0.1-1,0.5-0.8c0.2,0.3-0.6,0.6-0.2,0.8c9.5-5.1,19.5-8.5,30.6-12.8C65.1,84.2,66,83.6,65.3,83.2z M64.8,20.3
		c-1.2,0.3-2.4,1.4-2.5,0.3c-0.9,0-0.8,0.6-1.3,0c0,0.1,0,0.3,0.1,0.4c-15.4,6.1-31.5,16.5-39.4,31.2c0.2,0.6,0.5,1.1,0.5,1.6
		c0.9-0.9,0.8-1.6,1.5-2.8c2.4-3.3,6.3-10,9.3-11.8c5.2-3.3,10-7.6,15.9-10.5c3.6-3.3,8.5-4.4,12.9-7C62.9,21.5,64.7,21.1,64.8,20.3
		z M21.8,54.2c0,0.3-0.3,0.6,0,0.8C21.8,54.7,21.9,54.4,21.8,54.2z M36.6,125.6c-0.3,0-0.5,0.1-0.6,0.3
		C36.3,125.9,36.6,125.9,36.6,125.6z M38.3,124.6c-0.6,0-0.9,0.4-1.3,0.8C37.5,125.3,38,125,38.3,124.6z M42.5,122
		c-1.7-0.1-2,1.5-3.3,1.8C40.2,123.8,41.6,122.6,42.5,122z M40.4,92.3h-0.1H40.4z M43.4,121c-0.4,0-0.9,0.3-1,0.8
		C42.8,122.2,43.4,121.4,43.4,121z M45.8,119.2c-0.9,0.2-1.5,0.9-2.1,1.4c0,0.1,0,0.3,0.2,0.3C44.4,120.2,45.3,120.1,45.8,119.2z
		 M47,117.7c-0.2,0.3-0.8,0.2-0.8,0.9C46.7,118.6,47.4,118.1,47,117.7z M65,85.9c-2.1,0.9-4.5,1.4-6.3,2.4c-4,1.6-9.3,3-12.1,5.4
		c1.2-0.8,2.5-1.2,4-0.6c4.5-1.7,9.3-3.8,14.2-5.2C64.8,87.2,65.4,86.3,65,85.9z M49.1,116c-0.6,0-0.9,0.6-1.2,1
		C48.3,116.8,48.9,116.6,49.1,116z M49.7,115.7c1.2-0.8,2.4-2.6,3.9-3.6C51.8,112.7,51,114.5,49.7,115.7z M53.6,132.4
		c-0.3,0.2-1.2,0.6-1-0.1C52.8,132.7,53.1,132.2,53.6,132.4z M55.2,109.6c-0.3,0.8-1.5,1.2-1.2,2C54.2,110.8,55.5,110.3,55.2,109.6z
		 M55.8,109.1c0,0.2-0.3,0.2-0.5,0.5C55.8,109.7,56.3,109.3,55.8,109.1z M60,19.6c0.5,0.2,0.8,0,0.9-0.3
		C60.3,19.1,60.2,19.3,60,19.6z M68.3,44.5c-0.3,0-0.8-0.2-0.8,0l0.3,0.4C67.8,44.6,68.1,44.6,68.3,44.5z M70.4,43
		c0.6,0.1,0.8-0.1,1-0.5C70.8,42.4,70.5,42.7,70.4,43z M72.5,42.1v-0.2h0.2v-0.1h-0.3v0.1H72v0.2H72.5z M74.1,40.9
		c0.8-0.3,1.3-0.5,1.7-1.2C74.9,39.7,74.6,40.3,74.1,40.9z M83,34.9c0.2-0.2,0.5-0.5,0.5-1.1c-0.5-0.1-0.5,0.3-0.6,0.5
		C83.9,34.3,82.1,35.2,83,34.9z M85.4,31.4c0.1,0,0.1,0,0.1-0.1c0.5,0.1-0.5,0.3-0.5,0.6C84.8,32,85.4,30.8,85.4,31.4z M89,28.3
		h-0.2C88.1,27.2,90,28.7,89,28.3z"/>
	<path d="M142.5,95.5c1.3-1,1.8-2.5,2.7-3.7c0-0.2-0.3,0.1-0.5,0c0-0.8,0.8-1.1,1-1.8c-0.1-0.3-0.3,0.2-0.6,0.2
		c0-0.3,0.1-0.3,0.1-0.5c0.3-0.3,0.3,0,0.6,0c1.5-1.3,2.2-4.6,4.2-4.9c0,0.3-0.3,0.3-0.1,0.4c0.3,0,0.5,0.2,0.8,0.2
		c0,0.9,0,1.7-0.5,2.2c0.6,0.9-0.2,1.3-0.3,2.1c0.3,0.2,0.8-0.3,1-0.5c-0.2,1.4-0.9,3.2-2.1,4.2c0.1,0.3,0.1,0.5,0.1,0.8
		c-0.6,0.3-0.1,1.2-0.9,1.5c-0.2,0,0,0.3,0,0.5c-0.6,0.1-0.8,0.5-0.6,0.9c-0.8,0.6-1.5,1.2-1.6,2.2c-1.2,3.2-3.5,5-5,8
		c0,1.5-2.2,3-3.1,3.9c-0.2,0.9-1.2,1.3-1,2.5c-0.2,0-0.3,0-0.3-0.1c-1.9,3.7-5.4,6.1-10.5,7.5c-11,0.8-14.1-10.6-15.4-16
		c-0.3-1.2,0-3-0.6-4.5c-3.1,2.4-5.5,5.4-7.2,9c-2,3.4-4.7,6.3-6.5,9.9c-0.5,0.3-0.8,0.6-0.8,1.2c-1.3,0.6-1,2.4-2.1,3.1
		c0,0.2-0.2,0.6,0.2,0.6c-0.9,0.3-0.5,1.5-1.1,2c0.5,1.8-0.1,2.5-0.8,3.5c-0.6,0.3-1.2-0.3-1,0c-3.4-1.1-6.9-1.8-8.2-4.7
		c-0.5-1,0-1.9,0.1-3.4c0.2-1.2,0-3,0.8-3.8c-0.1-0.3-0.6,0-0.6-0.5c0.1-0.2,0.1,0,0.1,0.2c0.3-0.2,0.3-0.5,0.8-0.5
		c-0.3-0.8,0.3-0.9,0.2-1.5c0.3-0.2,0.6-0.2,0.6,0.3c0.3-0.6,0.2-1.2-0.3-1.6c0.6-0.6,0.2-2.4,1-2.2c-0.1-0.2-0.3-0.5-0.5-0.3
		c0-0.3,0.2-0.5,0-0.9c0.5-0.2,0.2,0.8,0.6,0.5c0.3-0.3-0.3-0.5-0.3-0.6c0-0.4,0.4-0.6,0.8-0.9c0,1-0.2,0.8-0.2,1.6
		c0,0.3,0.5-0.3,0.3,0.3c0.6-0.6,0-1.5,0.3-1.8c0.2-0.4-0.4,0-0.3-0.4c-0.1,0.3-0.5,0.4-0.9,0.4c-0.2-0.3,0.1-0.8,0.3-0.6
		c0.1-4.5,2-10.3,2.4-14.5h0.3c0-1.2,0.1-2.8,0.8-4.3c0-0.1-0.3-0.1-0.3-0.3c0.6-1,0.6-2.4,0.8-3.6h0.5c-0.1-0.3-0.5-1.2,0.2-1.5
		c0,0.3,0,0.6,0.4,0.5c-1.3-1.5,1.1-3.9,0-5.7c0.3-0.2,0.3,0.2,0.5,0.2c0.2-0.2,0.2-0.5,0.2-0.6c0-0.1-0.2-0.3-0.3-0.1
		c0.9-1,1.2-3.3,1.8-4.9c0.8,0.4,0.5-0.6,0.9-0.9c0-0.2,0-0.2-0.1-0.3h0.3v0.1c0,0.2-0.2,0.2-0.2,0.2h0.2c0,0.6-0.2,0.3,0.2,0.7
		c-0.2,0.2-0.2,0-0.3,0c0.2,0.2-0.1,0.3,0.2,0.6c1.3-1.6,1.3-4.5,2.4-6.3c0-0.3,0-0.6-0.1-0.8c0.5-0.1,0.6-1.3,0.1-1.5
		c0,0.4,0,0.8-0.4,1.2c0.1,0.6-0.2,1.4-0.6,1.8c0.2,0.1,0.3,0.1,0.3,0.5h-0.4c0,0.3,0.1,0.3,0.1,0.4l-0.5,0.3c0.5,0.4-0.3,0.6,0,1.2
		c-0.7-0.3-0.4,1.1-0.6,1.5c-0.5-1.5,0.6-1.9,0.2-3.6c0.1-0.2,0.4-0.2,0.8-0.3c-0.2,0,0-0.1,0-0.1c-0.2-0.1-0.2-0.4-0.5-0.3
		c-0.2-0.3,0.5-0.1,0.3-0.5c0.2,0,0,0.1,0.2,0.3c0.1-0.3-0.3-0.8-0.2-1.4H95c-0.2-0.1-0.2-0.5-0.2-0.8c0.2-0.1,0.3-0.1,0.3-0.3
		c0.3-0.3,0,0.3-0.1,0.4c0.3,0.3,0.5-0.4,0.6-0.4c0-0.5-0.5-0.2-0.5-0.6c0.5-0.3,0.3-0.9,0.3-1.5c0.8-0.3,0.1-1.6,1.3-1.6
		c-0.3-0.1-0.6-0.6-0.5-1c0.5,0.1,0.5,0.3,0.8,0.1c0-0.3-0.5,0.1-0.5-0.3c-0.1-0.4,0.2,0,0.5-0.1c-0.5-2.1,1-4.3,1.5-6.4
		c0.3-0.1,0.2,0.3,0.5,0.3c0-0.4-0.2-0.4-0.3-0.6c0-0.3,0.1-0.3,0-0.6c0.3,0,0.1,0.6,0.3,0.8c0.3,0,0.2-0.5,0.3-0.6
		c-0.1-0.1-0.1-0.3-0.5-0.1c0.6-0.8,0.5-2.7,1.5-2.9c0.2,0-0.3-0.9,0-1.2c0.3,0,0.5-0.1,0.8-0.1c0-0.5-0.3-0.1-0.5-0.1v-0.6
		c0.3,0.1,0.5,0.4,0.6,0.6c0.3-0.2,0.9-0.2,0.8-0.8c-0.3,0.1-0.3,0.4-0.8,0.6c0.1-0.3,0.1-1-0.3-1.2c0.6-0.3,1-0.6,1.2-1.5h-0.4
		c0.3-0.3,0.3-0.8,0.3-1.2c0.3,0,0.3,0,0.3,0.2c0.2,0,0.2-0.2,0.3-0.2c0.2-0.4-0.3-0.1-0.3-0.3c0-0.4,0.6-0.4,0.3-1.2
		c0.2,0,0.3,0.1,0.5,0.1c0.2-2.1,1.2-4.2,2.1-6c0,0-0.3,0-0.3-0.3c0.5,0.1,0.3-0.1,0.6-0.1c0-0.9,0.6-1.5,1.1-2.2
		c0.1,0,0.1,0.4,0,0.6c0.3-0.2,0.4-0.5,0.4,0.1c0.3-0.5,0-0.6,0.2-1.4c-0.2,0.5-0.3,0-0.5,0.3c-0.1-0.3,0.2-1.1,0.6-0.6
		c0-0.3-0.2-0.3-0.3-0.3c0.2-0.1,0.6-0.1,0.8,0c0-0.1,0.2-0.1,0-0.4c0,0.4-0.3-0.3-0.4,0.3c-0.2,0,0-0.6-0.2-0.8
		c0.5,0,0.5-0.3,0.9-0.1c0.1-0.4-0.3-0.1-0.5-0.1c0.6-0.5,0-1,0.8-1.2c-0.2-0.9,0.6-1.8,1.3-2.4c0-0.3-0.5,0-0.3-0.3
		c0.9-0.4,0.3-2.1,1.5-2.2c-0.2-1,0.9-1.2,0.9-2.1c0.8,0.1,0.3-1.2,0.9-0.9V23c0.3,0,0.3-0.3,0.5-0.5c0,0.1,0.3,0,0.3,0.1
		c0.1,0.6-0.5,0-0.5,0.5c0.3,0.5,0.6-0.1,0.8-0.3c0-0.3-0.5-0.2-0.3-0.6c0.1-0.1,0.3-0.1,0.5-0.1c-0.5-1.1,1.6-2.7,2.1-3.9
		c0-0.5-0.9-0.5-0.5-1.1c0.3-0.1,0.2,0.5,0.3,0.3c0.8-0.3,0.8-1.1,0.8-2c0.5-0.1,0.9-0.1,0.9-0.4c-0.6-0.1,1.5-1.8,2-2.7
		c3,0,4.3-2.8,7.2-3.6c1.4-0.3,2.7-0.9,4.3-1c1.4,0,3,0.1,4.4,0.8c1.5,0.6,2.8,1.6,3.3,3.3c1,2.8,1.5,7,0.6,10
		c-0.9,1.5-1.5,3.3-1,5.7c-0.3,0.8-0.6,1.4-0.6,2.2c-1.1,3.8-3.8,6.3-4.5,10c-1,2.2-2.4,4-3.2,6.3c-1.2,1.2-2.4,2.5-2.8,4.3
		c-0.6,1-1.7,2-1.7,3.4c-3.7,4.8-7.2,10-11.5,14.4c-4.2,4.2-8,8.7-13,12.1c-0.2,7-3.1,13.5-3.5,21.1c-0.3,0-0.1,0.3-0.3,0.6
		c0.3-0.3,0.9-0.9,0.8-1.5c0.6,0,0.9-0.8,0.8-1c0-0.2,0.2-0.2,0.5-0.2l-0.2-0.1c0.5-0.2,0.6-0.9,1-1.2c0-0.3-0.1-0.3-0.3-0.3
		c0.8-0.2,0.9-1.5,1.4-1c0-0.5,0.6-1,0.3-1.2c0.3-0.3,1.8-1.5,1.3-1.8c1.8-1.2,2.2-4,4-5c-0.1-0.1-0.1-0.5-0.1-0.8
		c4-5.5,8.1-11.1,13-15.9c0-0.1-0.3,0-0.3-0.4c0.6-0.1,0.9-0.3,1-0.3c0-0.1,0.3-0.3,0.6-0.8l0.6-0.4c2.7-1.5,3,0.6,4.6,0.4
		c0.2,0.5,0.5,0.6,1.2,0.5c1.7,0.3,2.2,2.5,2.2,2.7c-2.7,2-3.8,3.9-5,5.2c-1.2,1.2-2.4,1.9-4.2,4.3c-0.2,0-0.2-0.2-0.3-0.5
		c0,0.3-0.9,0.6-0.6,0.8c-1,0.6-1.2,2.1-1.9,3.3c-0.6,1-1.7,1.5-2.6,2.1c0.3,0.6-0.1,0.8,0,1.2c-0.1,0.2-0.3,0-0.3-0.1
		c-0.3,0.1,0.2,0.3,0.2,0.6c-0.3,0-0.6,0.3-0.6,0.6c-0.1,0-0.1-0.1-0.1-0.3c-0.3,0.2-0.2,0.5-0.2,0.6c-0.6,0-0.3,0.8-1,0.8
		c0.2,1-0.6,1.3-0.6,2.2c0.6,0.5,1.2,0.2,1.6,0.9c0.9-0.3,1,0.3,1.7,0.2c1.3,1.3,3.1,2.1,4,3.9c1.3,2.5,2,4.3,2.1,8.2
		c0.2,1.5,0.2,5.7,1.8,6.1c1.4,0.2,3.9-3.6,5.7-5.7c-0.2-0.1-0.3,0-0.5,0c0.8-1.3,2.5-1.9,3-3.6c6-6.4,12-13.2,16.6-20.7
		c0.1,0.8-0.3,1-0.6,1.4c0.6,0.3,0.8-0.6,0.9-0.9c0.5,0.6-0.5,1-0.8,1.5c0-0.3-0.2-0.5-0.5-0.3c-2.1,3.6-4.5,7-7.3,10.3
		c0.6,0.1,0.9-0.9,1.5-1c0.2,0.3-0.1,0.1-0.1,0.4c0.3-0.1,0.4-0.4,0.6-0.8c-0.6,0-0.2-0.3,0-0.6c0.3,0-0.2,0.3,0,0.6
		c0.1-0.1,0.3-0.3,0.5-0.3C142.7,94.7,142.2,94.9,142.5,95.5c-0.5,0-0.5,0.3-0.8,0.3c0.2,0.4-0.3,0.4-0.5,0.6v-0.5
		c-0.6,0-0.3,0.5-0.1,0.8c-0.3,0.2-0.6,0.8-0.8,0.6c0.1-0.2,0.5-0.9,0.3-0.8c0,0.3-0.6,0.6-0.6,0c-0.5,0.1-0.6,0.4-0.6,0.9
		c0.5,0.2,0.8-0.3,0.9,0.3c-0.9,0.2-0.9,1.2-1.7,1.7c-0.1-0.5,0.2-0.5,0.2-0.8c-0.3,0-0.3-0.3-0.5-0.5c0,0.2-0.2,0.2-0.3,0.2
		c0,0.6,0.5,0.1,0.3,0.8c-0.6,0.4-1.3,0.9-1.5,1.6c0.2,0,0.2-0.1,0.3-0.1c-0.1,0.3,0.3,0.3,0,0.4c-0.4,0.3-0.1-0.4-0.8-0.1
		c0,0.5,0.5,0.1,0.5,0.5c-0.1,0.4-0.9,0.6-0.8,1.2C138.3,100.1,141.2,98,142.5,95.5z M83.7,112.6v-0.3C84,112,84.2,112.7,83.7,112.6
		z M84.6,108.5c-0.2,0-0.2-0.2-0.2-0.2h0.3v0.2H84.6z M84.9,117.5c-0.2,0-0.2-0.2-0.3-0.2c0.1,0.6,0,0.9-0.2,1c0,0,0.2,0.2,0,0.3
		C84.9,118.4,84.9,118,84.9,117.5z M85.5,114.1h0.3c0-0.8-0.2-1.5,0.1-2v-0.3c-0.1,0.3-0.8,0.5-0.3,0.9c-0.6,0-0.5,0.6-0.6,0.9
		c-0.3,0.2-0.3-0.3-0.5-0.3c0,0.6,0.1,1.2,0.5,1.7c-0.5,0,0,0.6,0,0.9c-0.5-0.3-0.2,0.3-0.5,0.5c0.6-0.2,0,0.6,0.5,0.8
		C85.1,116,85.8,115,85.5,114.1z M85.1,113.8v0.3c0,0-0.2,0-0.3,0.2v-0.5H85.1z M85.5,104v-0.3h0.3C85.8,103.9,85.7,103.9,85.5,104z
		 M87,115c1.4-4.4,1.7-9,2.6-13.8c0.4-0.6,0.6-1.7,0.1-2.4c-0.6,0.8-1,1.8-0.5,2.7h-0.6c0.3,0.6-0.2,0.6-0.3,0.9
		c0.8,1-0.5,3.1-0.6,4.5c-0.1,0-0.1-0.2-0.3-0.2c0,0.3,0.2,0.6,0.2,0.9v-0.1h-0.2v0.3h0.2c0,1.2-0.5,2.4-0.5,3.8
		c-0.2,0-0.3,0-0.5,0.2c0.2,0.3,0.3,0.7,0.3,1.2c-0.3,0.2-0.3,0.3-0.6,0.2l-0.3,1.5c0.6,0.8-0.2,2.5-0.5,3.6
		c0.3,0.3,0.3-0.2,0.8-0.2c0.2-0.6,0.2-1.3,0.8-1.6C86.9,115.7,87.6,115.3,87,115z M86.3,118.6c-0.1,0.3-0.6,0.3-0.4,0.8
		C86.1,119.3,86.3,118.6,86.3,118.6z M86.6,108.1c-0.2,0-0.3,0-0.3-0.1c0.5,0,0.2,0,0.2-0.3h0.3c-0.1-0.4,0.3-1-0.1-1.3
		c0,0.9-0.9,2.1-0.3,2.5C86.4,108.5,86.6,108.4,86.6,108.1z M86.7,105.1v0.3c0-0.2,0.2-0.2,0.2-0.2v-0.2H86.7z M86.9,104.2
		c0,0.3,0,0.5,0.1,0.6c0.3,0,0.2-0.3,0.2-0.6H86.9z M87,102.8c0.3,0,0.5,0,0.5,0.2c0-1,0.5-1.6,0.6-2.4c-0.2,0-0.3-0.2-0.5-0.2
		c0,0.5-0.2,0.6-0.5,0.8C87.6,101.8,87.2,102.2,87,102.8z M87.3,99.7c-0.3-0.3,0.4-0.3,0.4-0.2c0.2,0.3-0.3,0.2-0.1,0.5l0.5,0.5
		c0.3-0.6,0.3-1.3,0.1-1.7c0,0.2-0.3,0.2-0.5,0.2c0.2,0.6-0.3,0.3-0.6,0.3C87.2,99.4,87,99.7,87.3,99.7z M87.8,97.6
		c-0.1-0.3,0.3-0.2,0.2-0.5C87.6,97,87.5,97.6,87.8,97.6z M87.9,98.2c0.3,0,0.3-0.3,0.8-0.3c0-0.2-0.2-0.5,0.2-0.5
		c-0.2-0.3-0.6-0.1-0.3-0.6C87.8,97,88.4,97.7,87.9,98.2z M88.5,98c-0.1,0-0.1,0-0.3,0.2c0,0,0,0.3,0.2,0.3
		C88.4,98.2,88.7,98.3,88.5,98z M88.7,95.8c-0.2,0-0.2-0.3-0.3-0.2C88.2,95.9,88.7,96.1,88.7,95.8z M88.8,95.3
		c-0.3-0.3,0.4-0.6-0.2-0.6C88.7,95,88.2,95.3,88.8,95.3z M89.1,94.4c0-0.1,0.5-0.8-0.2-0.8C89.1,94,88.7,94.3,89.1,94.4z
		 M89.1,84.4v-0.3h0.1l0.2,0.2C89.3,84.2,89.3,84.4,89.1,84.4z M89.7,91.4c0-0.4-0.3-1.2,0.3-1.2c0-0.8,0.3-1.1,0-1.7h-0.3
		C89.9,89.6,89,91,89.7,91.4z M89.9,96.7c-0.2,0.5-0.3,0.9-0.3,1.2c0,0,0.1-0.2,0.1,0C90.3,97.9,90.2,96.8,89.9,96.7z M90,111.4
		c0,0.9-0.6,1.7-0.1,2.4C89.9,113,90.6,112,90,111.4z M93.3,82.6c-0.3-1.2,0.5-1.3,0.5-2.1h-0.6c-0.5,1.2-1.4,4.8-0.6,5.2
		c-0.3,0-0.3,0.1-0.3,0.3c-0.5-0.2-0.8,1.2-0.6,1.3c-0.5,0.2-0.3,0.9-0.5,1.4c-0.2-0.2-0.3,0-0.5,0.1c0,0.5,0.2,0.5,0.3,0.9
		c-0.3-0.3-0.1,0-0.4,0v0.5c0.1,0,0.3,0,0.3-0.2c0,0.2-0.2,0.6,0,0.6c-0.3,0.3-0.2-0.3-0.3-0.4c-0.2,2.2-0.3,4.3-0.8,6.4
		c1-2.7,1.8-5.7,2.4-8.7c0-0.8,0-1.5,0.3-2.2C92.7,84.7,93.2,83.6,93.3,82.6z M90,87.2c0.3-0.2-0.4,0.6,0.2,0.5
		c-0.2-0.6,0.8-0.9,0.3-1.5C90,86.3,90.2,86.9,90,87.2z M90.2,110.3c-0.2,0.5,0,0.6,0.1,0.2C90.5,110.5,90.3,110.3,90.2,110.3z
		 M90.2,110c0.9-1.5,0.8-3.1,0.9-5.1C90.3,106.4,90.6,108.4,90.2,110z M90.3,85.1c0.2,0.2,0,0.6,0.3,0.6c-0.3-0.5,0.3-0.3,0.1-0.6
		H90.3z M90.8,85c-0.1-0.5,0.5-0.5,0.3-0.9C90.6,84.1,90.6,84.8,90.8,85z M91.7,102.7c-0.6,0.3-0.6,1-0.5,1.8
		C91.7,104.2,91.2,103.1,91.7,102.7z M91.4,75.2l-0.2,0.2c0-0.3,0-0.6,0.3-0.6C91.7,75.1,91.1,75.2,91.4,75.2z M92.1,99.8
		c0,0.1,0,0.3-0.3,0.3c0.3,0.6-0.6,1.3-0.1,2.1C92,101.8,92.3,100,92.1,99.8z M92.1,78.4c0.6-0.5,1.3-1.7,0.8-2.2
		C92.7,76.9,92.3,77.5,92.1,78.4z M92.4,98.3c-0.3,0-0.5,0.9,0,0.9C92.6,98.9,92.6,98.5,92.4,98.3z M93.5,92.3
		c-0.2,1-0.6,2.4-0.5,3.5C93.5,94.6,93.6,93.4,93.5,92.3z M94.4,76.4h-0.3c-0.3,1-0.4,2.1-0.6,3.1c0.3-0.1,0.3,0.2,0.5,0.2
		C94.2,78.7,95.1,77.5,94.4,76.4z M94.2,89.6h-0.3c-0.3,0.5-0.5,1.7-0.2,2.2L94.2,89.6z M94.7,69.2c-0.3,0.2-0.6,0.2-0.6,0.5
		C94.5,69.7,94.4,69.4,94.7,69.2z M94.5,87.8C94.4,88,94.2,88,94.2,88c0.1,0.3-0.3,0.9,0.1,1C94.5,88.7,94.5,88.4,94.5,87.8z
		 M96.6,70.4c0.9-0.1,0.3-1.5,1.2-1.6c-0.1-2.1,0.9-3.1,0.9-5.1c-1.4,0-1.5,2.5-1.4,3.1c-0.8,1-1,2.5-1.2,3.7
		c-0.2-0.1-0.2-0.1-0.3-0.1c-0.4,1.4-0.8,2.7-1.2,3.9c0.4-0.1,1.3-0.6,0.8-1C96.5,72.8,96.9,71.9,96.6,70.4z M96.2,80.8
		c-1.1,0.9-0.8,2.1-0.9,3.3L96.2,80.8z M96.3,79.3c-0.1,0.5-0.5,0.8-0.3,1.4C96.3,80.3,96.9,79.4,96.3,79.3z M96.3,65.2
		c0.3,0.2,0.3-0.4,0-0.4V65.2z M96.6,63.1c0.2,0,0.2,0,0.3-0.1c0-0.2,0-0.3-0.2-0.3C96.8,62.8,96.5,62.6,96.6,63.1z M97.1,102.2
		c0,0-0.1,0-0.1,0.2C97.1,102.4,97.1,102.2,97.1,102.2z M97.8,60.1c-0.1-0.3,0.3-0.6,0-0.5C97.8,59.6,97.5,60.1,97.8,60.1z
		 M99.2,59.9c0.4-0.1,0.1,0.4,0.4,0.1c2.5-6.6,5.8-13.3,7.5-20.4c0.8,0,0.2-0.9,1-0.9c0.8-1.6,1.2-3.7,2.5-4.9
		c0.5-2.1,1.4-3.7,2.7-5.1c0-1.5,1.2-2,1.3-3.3c1.2-0.6,1.4-2,2-2.9c-0.2,0-0.3,0.1-0.3,0c1-2.1,3.3-3.6,4.2-5.5
		c0.2,0,0.2,0.1,0.3,0.3c-0.3-0.6,0.1-0.6,0.6-0.6c0.2-0.3,0-0.8,0.2-1c0,0.1,0,0.3,0.1,0.1c0-0.3,0.5-0.1,0.5-0.5
		c-0.3,0.1-0.3-0.1-0.5-0.1c0.2,0.5-0.6,0.6-0.8,0.5c0-0.3,0.5-0.3,0.3-0.8c-0.4,0.1-1,1.3-0.6,0.9c0.2,1.5-1.3,1.2-1.5,2.4
		c-6.3,7.8-10.8,16.9-14.4,26.7c0.8,0.3-0.3,1.8-0.6,2.4c-0.2-0.1-0.2-0.4-0.5-0.3C102.2,51.4,100.5,55.4,99.2,59.9z M100.1,68.3
		c-0.3,0.2-0.3-0.6-0.5-0.3c0.2,0.6-0.4,0.8,0,1.2L100.1,68.3z M99.5,54.2c0,0.4,0.3,0.6,0.6,0.4v-0.4H99.5z M99.6,53.6l0.2,0.1
		c0.3,0,0.1,0.1,0.5,0c0-0.1-0.2-0.1-0.2-0.3C99.9,53.3,99.9,53.5,99.6,53.6z M100.5,98.9c-0.6-0.2-0.2,0.6-0.6,0.5
		c0.2,0.3-0.3,0.6,0,0.6c0-0.1,0.2-0.1,0.3-0.1C100.1,99.2,100.7,99.4,100.5,98.9z M99.9,51.4v0.1h0.2v-0.1H99.9z M100.2,66.2
		c0,0.3-0.3,0.3-0.2,0.8C100.5,67,100.7,66.1,100.2,66.2z M101.4,50.2c-0.1,0.1-0.1,0.3-0.4,0.3c0,0.3,0,0.6,0.3,0.5
		C101.3,50.8,101.4,50.5,101.4,50.2z M101.4,97.6c-0.3,0-0.3,0.1-0.4,0.1V98C101.1,98.3,101.3,97.7,101.4,97.6z M101.6,50.2
		c0-0.3,0.2-0.6,0-0.6c0,0.1-0.2,0.1-0.3,0.1C101.1,50,101.4,49.7,101.6,50.2z M101.9,96.7c-0.3,0-0.1,0.5-0.3,0.6
		C101.9,97.1,102,97.1,101.9,96.7z M102.3,47.8h-0.5c0.2,0.1,0.2,0.4,0.2,0.6C102.3,48.4,102.2,47.9,102.3,47.8z M104,54.8
		c-1.3,1.5-1.6,4.2-2.1,6c0.9-1.5,1.2-3.4,2.1-4.9C103.2,55.7,104.4,55.3,104,54.8z M102.2,96.2c0,0.2-0.3,0.2-0.1,0.5
		C102.3,96.7,102.5,96.2,102.2,96.2z M102.2,47.6c0.2,0,0.5,0,0.5-0.2c-0.3,0-0.3-0.1-0.5-0.1C102.3,47.5,102.2,47.5,102.2,47.6z
		 M103.1,95.2c-0.3,0.2-0.6,0.6-0.6,0.9c0.4,0,0.3-0.3,0.3-0.6C103.2,95.6,103.2,94.7,103.1,95.2z M103.7,41.6v0.1h0.3v-0.1H103.7z
		 M104.9,52.3h-0.3c-0.2,0.6-1,1.8-0.3,2.2C104.6,53.6,105.2,53.2,104.9,52.3z M104.3,92.9c0.3,0.5-0.2,0.3-0.2,0.6
		C104.6,93.7,104.7,92.8,104.3,92.9z M105.3,51.1c-0.3,0-0.5,0.1-0.5,0.4C105.3,51.5,105.5,51.4,105.3,51.1z M106.4,91.9
		c-0.2,0-0.8,0.2-0.6,0.3C106.1,92,106.4,92,106.4,91.9z M106.2,35.9c0,0.1,0,0.4,0.2,0.4c0-0.1,0.2-0.1,0.2-0.3
		C106.4,36.1,106.4,36.1,106.2,35.9z M106.5,90.8c0.6-0.2,0.4-0.8,0.8-1C106.8,90.1,106.5,90.2,106.5,90.8z M106.8,93.1v-0.3h-0.2
		v0.3H106.8z M118.7,32.8c0,0,0.3,0,0.3,0.1c-2.2,2.1-3.2,5.5-5,8.1c0.3,0.9-0.6,1.1-0.3,2.1c-0.3,0-0.5,0.1-0.6,0.3
		c0,1.5-0.9,3-1.7,4.4c0.5,0.8-0.3,0.9,0,1.9c-0.3,0.9-1.5,2.2-1,3.1c-0.5,0-0.2,0.6-0.6,0.6c-0.6,3.4-2.1,6.1-3,9
		c0.3-0.3,0,0,0.6,0.1c-0.1-0.3-0.1-0.4-0.1-0.8c1.3-0.3,1.3-1.8,2.7-2.1c0.2-0.6,0.2-1.2,0.8-0.9c0.2-0.5,0-0.6,0.2-0.9
		c0.3,0,0.1,0.3,0.5,0.3c0-0.6,0.4-0.9,0.8-1.4c0.3,0,0.8,0,0.8-0.4c-0.5,0,0,0.4-0.5,0.3c0-0.1-0.2-0.1-0.3-0.3
		c0.4,0,0.8-0.3,1.2-0.3c-0.3-1,0.8-0.4,0.9-1.2c-0.3,0-0.6,0-0.6-0.3c0.5,0,0.5-0.1,0.6-0.3c0,0.1-0.3,0.4,0,0.4
		c0.3-0.1,0-1.3,0.6-0.9c0,0.2-0.6,0.2-0.1,0.3c0-0.1,0.1-0.1,0.3-0.3c-0.2-0.3-0.2-0.6,0.1-0.8c0.3,0,1.4-0.7,0.9-1.2
		c0.2,0.1-0.3,0.5-0.3,0.1c0.5-0.4,0.6-1.4,1.3-1.4c-0.5,0,0.2-0.8,0.5-0.3c0-0.6,0.3-0.5,0.2-1c0.1,0,0.3,0.1,0.4,0
		c0.8-2.1,2.5-3.3,3.6-5.1c-0.2-0.9,0.3-1.5,1-1.9c0-0.1-0.3-0.1-0.3-0.3c0.4-0.3,0.6-1.2,1-1.5c-0.2,0-0.2-0.3-0.2-0.5
		c0.8-0.6,0.8-1.6,1.8-1.9c0.2-0.5-0.5-0.1-0.3-0.5c0.5-0.1,0.3-0.6,0.8-0.8c-0.3-0.4,0-0.8,0.6-0.9c0-0.6-0.1-1.2,0.6-1.2
		c0.1-0.3,0-0.3-0.2-0.8c0.5,0,0.6-0.3,0.5-0.8c0.5-0.1,0.8-0.8,0.5-0.9c0.3,0,0.6,0.4,0.8,0.1c-0.5-0.1,0.1-0.5-0.3-0.8
		c0.1,0,0.1-0.3,0.4-0.3c0-0.4,0.2-1,0.5-1.5c0.3,0.4,0.6-0.6,0.5-1.1c0.3,0.1,0.3-0.1,0.5-0.1c0.1-0.9,0.1-2.1,1.2-2.2
		c-0.3-0.4-0.1-0.9,0.3-0.6c-0.2-0.3-0.5-0.4-0.5-1.2c0.5,0.1,0.1-0.5,0.6-0.3c-0.1-0.5-0.6-2.1,0.2-2.6c-0.3-0.6,0-1,0-1.5
		c0.5,0,0.3-0.3,0.6-0.3c0.2-2.2,1.2-2.8,0.9-5.4c-1.8,0.2-3.8,2-5,3.5C124.4,22.6,120.8,27.4,118.7,32.8z M107.6,64.3
		c-0.3,0-0.3,0.3-0.6,0.3c0,0.3,0.3,0.1,0.5,0.3C107.3,64.4,107.6,64.6,107.6,64.3z M107.4,34v0.3C107.7,34.4,107.7,33.8,107.4,34z
		 M108.3,90.4c-0.3,0.3-0.8,0.5-0.6,0.9C108.2,91.3,108.5,90.7,108.3,90.4z M108.5,63.7v-0.3h-0.3v0.3H108.5z M108.9,87.8
		c-0.3,0.2-1,0.6-0.6,0.9c0-0.2,0.1-0.2,0.3-0.2C108.6,88.3,108.8,88,108.9,87.8z M108.9,62.8h-0.1c0,0.3-0.2,0.3,0,0.5
		C108.9,63.2,108.8,62.9,108.9,62.8z M109.5,86.8v-0.2h-0.1v0.3C109.4,86.8,109.5,86.8,109.5,86.8z M111.2,83.6
		c0,0.2-0.3,0.2-0.2,0.5C111.3,84.2,111.5,83.6,111.2,83.6z M112.1,34.7c0.4,0,0.6-0.4,0.3-0.6C112.5,34.6,111.9,34.4,112.1,34.7z
		 M112.4,59.2c0.3-0.3,0.8-0.6,0.9-1C112.7,58.3,112.7,58.9,112.4,59.2z M112.5,82.1v-0.3h-0.1v0.3H112.5z M112.5,24.1v0.1h0.3v-0.1
		H112.5z M113,82.7c0.6,0,0.3-0.8,1-0.8c-0.1-0.2,0.3-0.5,0-0.5C113.6,82,113.1,82.3,113,82.7z M113.7,20c-0.2-0.5,0.2-0.5,0.3-0.6
		C114.2,19.9,113.9,19.9,113.7,20z M114.5,21.5c0.2,0,0-0.1-0.2-0.1C114.2,21.8,114.3,22,114.5,21.5z M114.6,56.5v-0.2h-0.3
		c0.2,0.2,0.2,0.2,0.2,0.3C114.5,56.6,114.6,56.6,114.6,56.5z M117.3,52.3c-1,0.8-1.3,2.1-2.1,3.1c0.3,0,0.2-0.3,0.6-0.3
		C115.8,54.1,117.3,53.6,117.3,52.3z M117.3,52.1v0.1l0.2-0.1H117.3z M117.9,51.8c-0.2,0.1-0.3,0.3-0.5,0.3
		C117.6,52.1,117.8,52.1,117.9,51.8z M119,50.6v-0.3c-0.3,0-0.6,0.4-0.5,0.4C118.7,50.8,118.7,50.6,119,50.6z M119.3,74.8
		c0.3-0.1,0.9-0.9,0.6-0.9C119.7,74.2,119.3,74.3,119.3,74.8z M119.4,13.9c0.4-0.1,0.9-0.3,0.9-0.8
		C119.7,13.1,119.4,13.7,119.4,13.9z M120.9,47.3c0.4-0.9,1.5-1.9,1.6-2.8c-1,1.2-2.1,2.8-2.4,4.2c0.1-0.5,0.3-1,1.2-1
		C121.5,47.2,120.9,47.6,120.9,47.3z M122.7,46.7c0,0.2-0.3,0.2-0.2,0.5C122.9,47.2,122.9,46.6,122.7,46.7z M123.6,45.8
		c-0.6-0.1-0.5,0.3-0.8,0.5C123.3,46.3,123.6,46.1,123.6,45.8z M125.1,43.4h-0.5c-0.3,0.9-0.9,1.5-1.3,2.2c0.5-0.1,0.5-0.5,0.9-0.5
		c0-0.6,0.4-0.7,0.8-1C125,43.9,125.1,43.7,125.1,43.4z M125.3,42.7H125c0.1,0.3,0,0.3,0,0.5C125.3,43.3,125.4,43,125.3,42.7z
		 M125.9,41.2v0.5c-0.3,0-0.6,0.1-0.5,0.5c0.2,0,0.2,0,0.3,0.1c-0.2-0.5,0.1-0.5,0.3-0.6C125.9,41.5,125.9,41.3,125.9,41.2z
		 M125.7,42.5c0,0.1-0.3,0.1-0.3,0.5C125.7,43,125.9,42.5,125.7,42.5z M129.5,34.9c-0.6,0-0.6,0.4-0.4,1h-0.8
		c0.4,0.4-0.2,0.3-0.3,0.6c0.1,0.6-0.3,0.9-0.8,1.3c0,0.3,0.3,0.3,0.3,0.8c-0.3-0.1-0.3,0.1-0.6,0c0,0.8-0.1,1.2-0.6,1.4
		c0,0.3,0.2,0.3,0.2,0.3c-0.3,0.1-0.6,0.3-0.6,0.8c0.9,0,1.5-0.6,1-1.2l0.9-0.6c0-0.1-0.2-0.1-0.3-0.3h0.6c0.3-1.2,0.6-2.6,1.5-3.1
		C129.6,35.5,129.6,35.2,129.5,34.9z M126,38.2c0.5,0.3,0.5-0.6,0.1-0.5C126.2,38,126,38,126,38.2z M126.2,41.9
		c-0.1,0-0.1-0.1-0.1-0.3C126,41.8,126.2,42.1,126.2,41.9z M126.6,36.8c0.8-0.1,0.8-1,1.5-1.2c-0.5-0.6,0-1.2-0.1-1.2
		C127.4,35.2,127.1,36.1,126.6,36.8z M127.5,34c-0.2,0-0.5,0-0.5,0.2c0,0,0.2,0,0.2,0.1l-0.2-0.1h-0.2v0.1h0.3
		c0,0.3-0.2,0.6,0.1,0.3C127.2,34.1,127.7,34.3,127.5,34z M127.7,33.4c0,0,0.2,0,0.2-0.1v-0.2h-0.3
		C127.7,33.2,127.7,33.2,127.7,33.4z M128,46.7c0,0.2-0.2,0.6,0,0.3C128.3,47,127.8,46.3,128,46.7z M128.1,33.8v0.3
		C128.6,34.3,128.4,33.7,128.1,33.8z M128.3,46.3c0.1-0.5,1.3-0.9,0.8-1.4C128.4,45.4,128.1,46.1,128.3,46.3z M128.6,32.5v-0.3h-0.3
		v0.3H128.6z M128.4,33.5v0.1h0.3v-0.3C128.6,33.4,128.6,33.4,128.4,33.5z M129,32.6c-0.5,0-0.2,0.4-0.3,0.8
		C128.9,33.2,129,32.9,129,32.6z M129.6,43.7c-0.3,0.1-0.2,0.6-0.6,0.8c0,0.1,0.1,0.1,0.3,0.3c-0.2,0.1-0.3,0.1-0.3,0.1
		C129.5,44.9,130.1,44.2,129.6,43.7z M129.2,32.5c0.6-0.8,0.8-1.5,1.4-2.2c-0.2,0-0.3,0-0.5-0.1C130.1,31,129,31.7,129.2,32.5z
		 M133.7,23.5c0.2,1.4-1,2.5-0.6,3.5c-0.6-0.2-0.3,0.4-0.3,0.8c-0.4,0.8-0.7,1.5-1,2.5c-0.4,0-0.1,0.4-0.6,0.3v0.8
		c-0.9,0.8-0.9,2.1-1.8,2.9c0,0.4,0.3,0.4,0.1,0.8c0.5,0.1,0.3,0,0.8,0c1.1-2.4,2.2-4.4,3-6.6c-0.1-0.6,0-1.2,0.6-1.2
		c0.1-0.5-0.3,0-0.3-0.3c0.8-0.6,0.3-2.1,0.8-3C134,23.6,134,23.3,133.7,23.5z M131,41c-0.4,0.6-0.6,1.6-1,2.4
		C130.5,42.8,131,41.6,131,41z M130.1,28.9c0.3,0.1,0.3-0.4,0.1-0.3C130.2,28.7,129.9,28.6,130.1,28.9z M130.4,28.1
		c0-0.1,0.2-0.6-0.3-0.4C130.1,28,130.2,28.1,130.4,28.1z M131.4,25.6c-0.1-0.3,0-0.8-0.3-0.6C131.1,25.3,131.1,25.4,131.4,25.6z
		 M131.7,106.7c-0.1,0-0.1-0.2-0.3-0.2c0.2,0.2,0,0.2-0.1,0.3c0.1,0,0.3,0,0.4,0.1V106.7z M134.9,33.8c-0.8,0.9-1,2.2-2.1,2.9
		c0,1.6-1.3,2.5-1.2,3.9C132.5,38.2,134.3,36.1,134.9,33.8z M131.7,22.4h0.3V22h-0.3V22.4z M134.1,108.4l-0.5-0.3
		c0,0.2,0,0.5-0.3,0.6C133.8,108.7,133.7,108.4,134.1,108.4z M133.5,105.2c0.3,0,0.3,0.2,0.5,0.2c0-0.3,0.5-0.5,0.2-1.2
		c0.6,0,0.5-0.3,0.9-0.5c-0.1-0.3-0.4-0.3-0.4-0.8c-0.2,0-0.3,0.2-0.6,0.2c0.2,0.4,0.2,0.9,0,1.5c-0.1,0-0.1-0.3-0.3-0.2
		C133.8,104.9,133.2,104.8,133.5,105.2z M133.8,23.3h0.4c-0.1-0.6,0.5-0.8,0.2-1.4h-0.3C134,22.6,133.7,22.7,133.8,23.3z
		 M134.6,106.6c-0.2-0.1-0.2-0.3-0.3-0.1c0.2,0.1-0.3,0.5,0,0.5C134.3,106.7,134.3,106.6,134.6,106.6z M135.8,106.1
		c-0.3-0.3-0.6-0.5-1.2-0.3c0,0.3,0.1,0.6,0,0.8c0,0.2,0.1,0.2,0.1,0.3c-0.1,0.3-0.6,0.4-0.3,1c0.5,0,0.3-0.5,0.8-0.5
		C134.9,106.7,135.9,106.7,135.8,106.1z M134.4,17.8v0.3h0.5c-0.2-0.2,0-0.3,0-0.3H134.4z M134.9,21.1h-0.3v0.3
		C134.7,21.2,134.9,21.2,134.9,21.1z M134.9,33.7c0.6,0,1-0.9,0.5-1C135.3,33.1,134.9,33.2,134.9,33.7z M135,19.9
		c0.2-0.1,0.5-0.1,0.5-0.5c-0.1,0.1-0.3,0-0.5,0C135.2,19.6,135.2,19.7,135,19.9z M135.3,103.6c0-0.3,0.4-0.3,0.1-0.6
		c0,0-0.1,0.2-0.3,0.2C135.2,103.3,135.2,103.6,135.3,103.6z M136.1,101.6c-0.5,0.3-0.3-0.3-0.6-0.2
		C135.3,101.9,136.4,101.8,136.1,101.6z M135.9,31.6h-0.2C135.8,32.2,136.1,32.2,135.9,31.6z M135.9,31.6c0.5,0,0.2-0.4,0.5-0.6
		C135.9,31,136.2,31.6,135.9,31.6z M136.5,101.5v-0.3c-0.3,0-0.3-0.2-0.4-0.3C136.1,101.3,136.1,101.6,136.5,101.5z M136.7,30.4
		v-0.1l0.2-0.1v-0.3h-0.2v0.1h-0.2v0.5H136.7z M142.1,97.6c-1.5,2.5-5.1,4.3-5.5,7.3c0.2-0.5,0.5-0.9,1.2-1c0.2-0.3,0-0.6,0.2-0.8
		c0,0.1,0.1,0.3,0.3,0.1C138.9,101.2,142.1,99.7,142.1,97.6z M136.5,100.4v0.2h0.2v-0.3L136.5,100.4z M136.8,100.3
		c0.1,0,0.4-0.1,0.3-0.4L136.8,100.3z M137.6,99.2v0.3C138,99.7,137.9,98.9,137.6,99.2z M138.6,99.4v0.5c-0.6,0-0.3,0.6-0.9,0.6
		C137.9,100,138,99.5,138.6,99.4z M137.9,108.2c0,0.1,0,0.5,0.1,0.5C138.2,108.5,138.2,108.1,137.9,108.2z M139.4,103.1
		c0,0.3-0.5,0.3-0.3,0.8C139.7,104,139.7,103.3,139.4,103.1z M142.8,93.7c0-0.5,0-0.8,0.5-0.8C143,93.1,143.3,93.7,142.8,93.7z
		 M143.1,94.1c-0.1-0.3,0-0.6,0.3-0.6C143.4,93.8,143.3,94,143.1,94.1z M143.9,93.1c-0.4-0.2,0.3-0.5,0.2-0.8c0.2,0,0.2,0.3,0.3,0.3
		C144.5,92.9,143.7,92.8,143.9,93.1z M146,90.2c-0.5,0.1-0.6,0.8-0.3,0.9C145.7,90.8,146,90.7,146,90.2z M146.1,94.4v0.3h0.2v-0.1
		h0.2v-0.2H146.1z M146.3,90.1c0.5-0.2,0.5-0.6,0.9-0.8v-0.5C146.6,89.2,146.4,89.6,146.3,90.1z M146.9,95.2c-0.1,0.3-0.4,0.6-0.3,1
		C147.3,96.1,147.8,95.2,146.9,95.2z M147.8,88.1c-0.3,0-0.8,0.5-0.5,0.6C147.5,88.4,147.8,88.4,147.8,88.1z M147.9,83.5
		c0,0.5-0.4,0.5-0.3,0.9C147.5,84.7,147.3,83.5,147.9,83.5z M148.4,87.2h-0.5c0,0.1,0,0.3-0.1,0.5C148.1,87.7,148.4,87.5,148.4,87.2
		z M148.7,89.6c-0.3,0.2-0.3-0.1-0.4-0.1c0,0.3,0,0.1,0.1,0.4h0.3V89.6z M149.9,83.8c0.3,0.3-0.1,0.3-0.1,0.5
		C149.6,84.2,149.6,83.6,149.9,83.8z"/>
</g>
</svg>
