<svg xmlns="http://www.w3.org/2000/svg" viewBox="0 0 144.7 127.41"><path d="M69,42.4a5.13,5.13,0,0,0,3.9-2.1,36.36,36.36,0,0,0,10.3-7.5c.5.1,0,.8.5.9s.5-.3.5-.8c2,.6,2.4-2.1,4-1.9.1-.3-.2-.3-.3-.3,5.1-3.1,4.9-5.2,5.1-7.3-.3-.4-.5-1.2-.8-1.6-3.9-1.2-5.5.5-8.8,1a42.72,42.72,0,0,0-6.9,1.5c-5,1.8-9.9,3.5-14.5,5.5-4.3,2-16.2,9.6-24.1,17.1-11.1,10.3-13.5,14.2-.6,19a25.09,25.09,0,0,0,7.9,1.6c.3.5.8.8,2,.6,9.1,2.7,18,6.6,22.8,12.4,8.7-.9,17.5-5,24.9-6.6,0,.3-.2.3-.5.5.2.3.8-.1,1.2,0-.6.3-.5.6-1.5.5,0,.1.3.1.5.1-7.3,1.3-15.3,5.5-23.4,6.6-.1.6.6.5.6,1A92.11,92.11,0,0,0,97,74.7c-.6.7-.3.7.2,1.4a14.56,14.56,0,0,1-4.7,2.5c.5-.5.3-.8.9-1.2-7.8,1.3-12.7,5.2-20.7,5.8a3,3,0,0,0,.2,1.4c7.2-.8,12.1-5.1,18.9-6-.3.3-.7.1-.9.6,1,0,1.5-.6,2.7-.3-5.5,3.3-13,5.8-19.8,7.5,1.8,4.9-.8,13-3.6,16.8-5.5,6.6-10.8,13.5-18,18,0,.6-.9,1.3-.6,1.8-4.9,3.7-13.8,8.1-20.7,10.9a14.72,14.72,0,0,1-4.6,1.2C12.7,133.6,1,126,8.6,112c1-1.9,4.5-5.1,6.9-6.9A65.38,65.38,0,0,1,26.7,99l7.2-3.6c.3.6.6,0,.9-.6.5.6.9,0,.9-.6,2,.1,2.9-1.4,5.1-2.2,0,.1-.2.1-.2.1L57.2,85c.5,0,.2.1.2.3,2.2-1.8,5.2-1.7,7.8-3.3-3.7-2.5-9.4-4.5-14.8-6-4.7-1.2-10-2.1-14.4-3-8.2-2-12-7.8-15-13.7.6-1.2-.2-2.7-.5-3.8,0-.6-.4,0-.4-.4.7-4,3.4-7.5,4.3-9.7A46.39,46.39,0,0,1,32.5,36C41,28.5,53.9,21.2,60.8,18.2c7.3.4,11.7-2.9,19-2.4.5,0,.5-.5.9-.6,1.6.6,3.4-.5,4.5.6,8.1-.2,16.6,7.2,14.8,13.9-1,3.8-6.4,7.3-9.3,9.7A100,100,0,0,1,79,47.3a25.34,25.34,0,0,0-2.7,1.8,4.18,4.18,0,0,0-1.8,1.1c-10,1.3-8.5-4.2-9-4.8,0-.5,1-.6,1.3-.5C66.9,43.3,69.2,43.7,69,42.4ZM63.3,89.9c-12.6,4.5-24.1,10.2-35.7,16.2-6.3,1.9-10.5,6.7-15.3,10.8-.1.3.4.3.4.6-1.6.6-1,5.1-.8,6.4.2-.8.9.3,1.2.5a.65.65,0,0,0-.5.2c.3.6,1.8.6,1.8,1.3,0-.3-.9-.2-.2,0,.3.6.6-.5,1.2-.2a27.72,27.72,0,0,0,6.3,1c13.8-5.5,24.4-14.7,33.6-24.9-.1-.5-.6.2-.6-.2.5-.6,1-.3,1.3-.8-.1-.3-.9-.1-.8-.8.5.3.9-.1,1.2.3.6,0,.5-.9,1.2-.8-5.7,9-13.6,17.2-23.2,22.2-3.3,3-9.1,3.9-12,6.8.8.6,1.5,0,1.9-.5a61,61,0,0,0,15.3-7.3c1.2-.8,1.8-2.2,2.8-3.1,6-4.8,15-12.3,16.3-18.1-.3,0-.9.3-1,0,.6-1,2.1-2.1,1.8-3.3-1.2,1.3-2.1,3.1-3.9,3.6C59.1,97.1,60.5,93.5,63.3,89.9ZM13.1,109.6c0-.5.4-.1.4-.6C13.2,108.8,12.6,109.4,13.1,109.6ZM65.3,83.2C47,89.6,28.4,97.6,14.6,107.8c.1-.2-1.2.8-.6,1,5.8-4.9,13.3-9.4,20.5-11.2.2-.3-.1-1,.5-.8.2.3-.6.6-.2.8,9.5-5.1,19.5-8.5,30.6-12.8C65.1,84.2,66,83.6,65.3,83.2Zm-.5-62.9c-1.2.3-2.4,1.4-2.5.3-.9,0-.8.6-1.3,0a.6.6,0,0,0,.1.4C45.7,27.1,29.6,37.5,21.7,52.2a5.82,5.82,0,0,1,.5,1.6c.9-.9.8-1.6,1.5-2.8C26.1,47.7,30,41,33,39.2c5.2-3.3,10-7.6,15.9-10.5,3.6-3.3,8.5-4.4,12.9-7C62.9,21.5,64.7,21.1,64.8,20.3Zm-43,33.9c0,.3-.3.6,0,.8C21.8,54.7,21.9,54.4,21.8,54.2Zm14.8,71.4a.6.6,0,0,0-.6.3C36.3,125.9,36.6,125.9,36.6,125.6Zm1.7-1c-.6,0-.9.4-1.3.8A2.22,2.22,0,0,0,38.3,124.6Zm4.2-2.6c-1.7-.1-2,1.5-3.3,1.8C40.2,123.8,41.6,122.6,42.5,122ZM40.4,92.3h0Zm3,28.7a1.05,1.05,0,0,0-1,.8C42.8,122.2,43.4,121.4,43.4,121Zm2.4-1.8a5.18,5.18,0,0,0-2.1,1.4c0,.1,0,.3.2.3C44.4,120.2,45.3,120.1,45.8,119.2Zm1.2-1.5c-.2.3-.8.2-.8.9C46.7,118.6,47.4,118.1,47,117.7ZM65,85.9c-2.1.9-4.5,1.4-6.3,2.4-4,1.6-9.3,3-12.1,5.4a4.08,4.08,0,0,1,4-.6c4.5-1.7,9.3-3.8,14.2-5.2C64.8,87.2,65.4,86.3,65,85.9ZM49.1,116c-.6,0-.9.6-1.2,1C48.3,116.8,48.9,116.6,49.1,116Zm.6-.3c1.2-.8,2.4-2.6,3.9-3.6C51.8,112.7,51,114.5,49.7,115.7Zm3.9,16.7c-.3.2-1.2.6-1-.1C52.8,132.7,53.1,132.2,53.6,132.4Zm1.6-22.8c-.3.8-1.5,1.2-1.2,2C54.2,110.8,55.5,110.3,55.2,109.6Zm.6-.5c0,.2-.3.2-.5.5C55.8,109.7,56.3,109.3,55.8,109.1ZM60,19.6c.5.2.8,0,.9-.3C60.3,19.1,60.2,19.3,60,19.6Zm8.3,24.9c-.3,0-.8-.2-.8,0l.3.4C67.8,44.6,68.1,44.6,68.3,44.5ZM70.4,43a.78.78,0,0,0,1-.5A.81.81,0,0,0,70.4,43Zm2.1-.9v-.2h.2v-.1h-.3v.1H72v.2Zm1.6-1.2a2.69,2.69,0,0,0,1.7-1.2C74.9,39.7,74.6,40.3,74.1,40.9Zm8.9-6a1.43,1.43,0,0,0,.5-1.1c-.5-.1-.5.3-.6.5C83.9,34.3,82.1,35.2,83,34.9Zm2.4-3.5c.1,0,.1,0,.1-.1.5.1-.5.3-.5.6C84.8,32,85.4,30.8,85.4,31.4ZM89,28.3h-.2C88.1,27.2,90,28.7,89,28.3Z" transform="translate(-6.2 -7.7)"/><path d="M142.5,95.5c1.3-1,1.8-2.5,2.7-3.7,0-.2-.3.1-.5,0,0-.8.8-1.1,1-1.8-.1-.3-.3.2-.6.2,0-.3.1-.3.1-.5.3-.3.3,0,.6,0,1.5-1.3,2.2-4.6,4.2-4.9,0,.3-.3.3-.1.4s.5.2.8.2a3,3,0,0,1-.5,2.2c.6.9-.2,1.3-.3,2.1.3.2.8-.3,1-.5a7,7,0,0,1-2.1,4.2,2.2,2.2,0,0,1,.1.8c-.6.3-.1,1.2-.9,1.5-.2,0,0,.3,0,.5-.6.1-.8.5-.6.9a3.23,3.23,0,0,0-1.6,2.2c-1.2,3.2-3.5,5-5,8,0,1.5-2.2,3-3.1,3.9-.2.9-1.2,1.3-1,2.5-.2,0-.3,0-.3-.1-1.9,3.7-5.4,6.1-10.5,7.5-11,.8-14.1-10.6-15.4-16-.3-1.2,0-3-.6-4.5a24.37,24.37,0,0,0-7.2,9c-2,3.4-4.7,6.3-6.5,9.9a1.3,1.3,0,0,0-.8,1.2c-1.3.6-1,2.4-2.1,3.1,0,.2-.2.6.2.6-.9.3-.5,1.5-1.1,2a3.41,3.41,0,0,1-.8,3.5c-.6.3-1.2-.3-1,0-3.4-1.1-6.9-1.8-8.2-4.7-.5-1,0-1.9.1-3.4.2-1.2,0-3,.8-3.8-.1-.3-.6,0-.6-.5.1-.2.1,0,.1.2.3-.2.3-.5.8-.5-.3-.8.3-.9.2-1.5.3-.2.6-.2.6.3a1.23,1.23,0,0,0-.3-1.6c.6-.6.2-2.4,1-2.2-.1-.2-.3-.5-.5-.3,0-.3.2-.5,0-.9.5-.2.2.8.6.5s-.3-.5-.3-.6c0-.4.4-.6.8-.9,0,1-.2.8-.2,1.6,0,.3.5-.3.3.3.6-.6,0-1.5.3-1.8s-.4,0-.3-.4c-.1.3-.5.4-.9.4-.2-.3.1-.8.3-.6.1-4.5,2-10.3,2.4-14.5h.3a10.14,10.14,0,0,1,.8-4.3c0-.1-.3-.1-.3-.3a10.53,10.53,0,0,0,.8-3.6h.5c-.1-.3-.5-1.2.2-1.5,0,.3,0,.6.4.5-1.3-1.5,1.1-3.9,0-5.7.3-.2.3.2.5.2a.85.85,0,0,0,.2-.6c0-.1-.2-.3-.3-.1.9-1,1.2-3.3,1.8-4.9.8.4.5-.6.9-.9,0-.2,0-.2-.1-.3h.3v.1a.2.2,0,0,1-.2.2h.2c0,.6-.2.3.2.7-.2.2-.2,0-.3,0,.2.2-.1.3.2.6,1.3-1.6,1.3-4.5,2.4-6.3A2,2,0,0,0,96,68c.5-.1.6-1.3.1-1.5a1.47,1.47,0,0,1-.4,1.2,2.33,2.33,0,0,1-.6,1.8c.2.1.3.1.3.5H95c0,.3.1.3.1.4l-.5.3c.5.4-.3.6,0,1.2-.7-.3-.4,1.1-.6,1.5-.5-1.5.6-1.9.2-3.6.1-.2.4-.2.8-.3-.2,0,0-.1,0-.1-.2-.1-.2-.4-.5-.3-.2-.3.5-.1.3-.5.2,0,0,.1.2.3.1-.3-.3-.8-.2-1.4H95c-.2-.1-.2-.5-.2-.8.2-.1.3-.1.3-.3.3-.3,0,.3-.1.4.3.3.5-.4.6-.4,0-.5-.5-.2-.5-.6.5-.3.3-.9.3-1.5.8-.3.1-1.6,1.3-1.6a.94.94,0,0,1-.5-1c.5.1.5.3.8.1,0-.3-.5.1-.5-.3s.2,0,.5-.1c-.5-2.1,1-4.3,1.5-6.4.3-.1.2.3.5.3,0-.4-.2-.4-.3-.6s.1-.3,0-.6c.3,0,.1.6.3.8.3,0,.2-.5.3-.6-.1-.1-.1-.3-.5-.1.6-.8.5-2.7,1.5-2.9.2,0-.3-.9,0-1.2.3,0,.5-.1.8-.1,0-.5-.3-.1-.5-.1v-.6a1.17,1.17,0,0,1,.6.6c.3-.2.9-.2.8-.8-.3.1-.3.4-.8.6.1-.3.1-1-.3-1.2a1.91,1.91,0,0,0,1.2-1.5h-.4a1.68,1.68,0,0,0,.3-1.2c.3,0,.3,0,.3.2.2,0,.2-.2.3-.2.2-.4-.3-.1-.3-.3,0-.4.6-.4.3-1.2.2,0,.3.1.5.1a17.87,17.87,0,0,1,2.1-6,.29.29,0,0,1-.3-.3c.5.1.3-.1.6-.1a3.86,3.86,0,0,1,1.1-2.2c.1,0,.1.4,0,.6.3-.2.4-.5.4.1.3-.5,0-.6.2-1.4-.2.5-.3,0-.5.3-.1-.3.2-1.1.6-.6,0-.3-.2-.3-.3-.3a1.1,1.1,0,0,1,.8,0c0-.1.2-.1,0-.4,0,.4-.3-.3-.4.3-.2,0,0-.6-.2-.8.5,0,.5-.3.9-.1.1-.4-.3-.1-.5-.1.6-.5,0-1,.8-1.2-.2-.9.6-1.8,1.3-2.4,0-.3-.5,0-.3-.3.9-.4.3-2.1,1.5-2.2-.2-1,.9-1.2.9-2.1.8.1.3-1.2.9-.9V23c.3,0,.3-.3.5-.5,0,.1.3,0,.3.1.1.6-.5,0-.5.5.3.5.6-.1.8-.3,0-.3-.5-.2-.3-.6a.75.75,0,0,1,.5-.1c-.5-1.1,1.6-2.7,2.1-3.9,0-.5-.9-.5-.5-1.1.3-.1.2.5.3.3.8-.3.8-1.1.8-2,.5-.1.9-.1.9-.4-.6-.1,1.5-1.8,2-2.7,3,0,4.3-2.8,7.2-3.6a27.09,27.09,0,0,1,4.3-1,9.8,9.8,0,0,1,4.4.8,5.17,5.17,0,0,1,3.3,3.3c1,2.8,1.5,7,.6,10a7.52,7.52,0,0,0-1,5.7,6,6,0,0,0-.6,2.2c-1.1,3.8-3.8,6.3-4.5,10-1,2.2-2.4,4-3.2,6.3a9,9,0,0,0-2.8,4.3c-.6,1-1.7,2-1.7,3.4-3.7,4.8-7.2,10-11.5,14.4-4.2,4.2-8,8.7-13,12.1-.2,7-3.1,13.5-3.5,21.1-.3,0-.1.3-.3.6.3-.3.9-.9.8-1.5a.92.92,0,0,0,.8-1c0-.2.2-.2.5-.2l-.2-.1c.5-.2.6-.9,1-1.2,0-.3-.1-.3-.3-.3.8-.2.9-1.5,1.4-1,0-.5.6-1,.3-1.2.3-.3,1.8-1.5,1.3-1.8,1.8-1.2,2.2-4,4-5a1.72,1.72,0,0,1-.1-.8c4-5.5,8.1-11.1,13-15.9,0-.1-.3,0-.3-.4a6.59,6.59,0,0,0,1-.3c0-.1.3-.3.6-.8l.6-.4c2.7-1.5,3,.6,4.6.4.2.5.5.6,1.2.5,1.7.3,2.2,2.5,2.2,2.7-2.7,2-3.8,3.9-5,5.2a28.76,28.76,0,0,0-4.2,4.3c-.2,0-.2-.2-.3-.5,0,.3-.9.6-.6.8-1,.6-1.2,2.1-1.9,3.3a7.55,7.55,0,0,1-2.6,2.1c.3.6-.1.8,0,1.2-.1.2-.3,0-.3-.1-.3.1.2.3.2.6a.65.65,0,0,0-.6.6c-.1,0-.1-.1-.1-.3a.55.55,0,0,0-.2.6c-.6,0-.3.8-1,.8.2,1-.6,1.3-.6,2.2.6.5,1.2.2,1.6.9.9-.3,1,.3,1.7.2,1.3,1.3,3.1,2.1,4,3.9a16,16,0,0,1,2.1,8.2c.2,1.5.2,5.7,1.8,6.1,1.4.2,3.9-3.6,5.7-5.7-.2-.1-.3,0-.5,0,.8-1.3,2.5-1.9,3-3.6,6-6.4,12-13.2,16.6-20.7.1.8-.3,1-.6,1.4.6.3.8-.6.9-.9.5.6-.5,1-.8,1.5,0-.3-.2-.5-.5-.3a71.48,71.48,0,0,1-7.3,10.3c.6.1.9-.9,1.5-1,.2.3-.1.1-.1.4.3-.1.4-.4.6-.8-.6,0-.2-.3,0-.6.3,0-.2.3,0,.6a.85.85,0,0,1,.5-.3c0,.7-.5.9-.2,1.5-.5,0-.5.3-.8.3.2.4-.3.4-.5.6v-.5c-.6,0-.3.5-.1.8-.3.2-.6.8-.8.6.1-.2.5-.9.3-.8,0,.3-.6.6-.6,0-.5.1-.6.4-.6.9.5.2.8-.3.9.3-.9.2-.9,1.2-1.7,1.7-.1-.5.2-.5.2-.8-.3,0-.3-.3-.5-.5,0,.2-.2.2-.3.2,0,.6.5.1.3.8a3.32,3.32,0,0,0-1.5,1.6c.2,0,.2-.1.3-.1-.1.3.3.3,0,.4-.4.3-.1-.4-.8-.1,0,.5.5.1.5.5s-.9.6-.8,1.2C138.3,100.1,141.2,98,142.5,95.5ZM83.7,112.6v-.3C84,112,84.2,112.7,83.7,112.6Zm.9-4.1a.2.2,0,0,1-.2-.2h.3v.2Zm.3,9c-.2,0-.2-.2-.3-.2.1.6,0,.9-.2,1,0,0,.2.2,0,.3C84.9,118.4,84.9,118,84.9,117.5Zm.6-3.4h.3c0-.8-.2-1.5.1-2v-.3c-.1.3-.8.5-.3.9-.6,0-.5.6-.6.9-.3.2-.3-.3-.5-.3A2.62,2.62,0,0,0,85,115c-.5,0,0,.6,0,.9-.5-.3-.2.3-.5.5.6-.2,0,.6.5.8C85.1,116,85.8,115,85.5,114.1Zm-.4-.3v.3a.36.36,0,0,0-.3.2v-.5Zm.4-9.8v-.3h.3C85.8,103.9,85.7,103.9,85.5,104ZM87,115c1.4-4.4,1.7-9,2.6-13.8a2.3,2.3,0,0,0,.1-2.4,2.49,2.49,0,0,0-.5,2.7h-.6c.3.6-.2.6-.3.9.8,1-.5,3.1-.6,4.5-.1,0-.1-.2-.3-.2,0,.3.2.6.2.9v-.1h-.2v.3h.2c0,1.2-.5,2.4-.5,3.8a.55.55,0,0,0-.5.2,2.13,2.13,0,0,1,.3,1.2c-.3.2-.3.3-.6.2l-.3,1.5c.6.8-.2,2.5-.5,3.6.3.3.3-.2.8-.2.2-.6.2-1.3.8-1.6C86.9,115.7,87.6,115.3,87,115Zm-.7,3.6c-.1.3-.6.3-.4.8C86.1,119.3,86.3,118.6,86.3,118.6Zm.3-10.5c-.2,0-.3,0-.3-.1.5,0,.2,0,.2-.3h.3c-.1-.4.3-1-.1-1.3,0,.9-.9,2.1-.3,2.5C86.4,108.5,86.6,108.4,86.6,108.1Zm.1-3v.3a.2.2,0,0,1,.2-.2V105h-.2Zm.2-.9c0,.3,0,.5.1.6.3,0,.2-.3.2-.6Zm.1-1.4c.3,0,.5,0,.5.2a14,14,0,0,1,.6-2.4c-.2,0-.3-.2-.5-.2,0,.5-.2.6-.5.8C87.6,101.8,87.2,102.2,87,102.8Zm.3-3.1c-.3-.3.4-.3.4-.2.2.3-.3.2-.1.5l.5.5a2.06,2.06,0,0,0,.1-1.7c0,.2-.3.2-.5.2.2.6-.3.3-.6.3C87.2,99.4,87,99.7,87.3,99.7Zm.5-2.1c-.1-.3.3-.2.2-.5C87.6,97,87.5,97.6,87.8,97.6Zm.1.6c.3,0,.3-.3.8-.3,0-.2-.2-.5.2-.5-.2-.3-.6-.1-.3-.6C87.8,97,88.4,97.7,87.9,98.2Zm.6-.2c-.1,0-.1,0-.3.2,0,0,0,.3.2.3C88.4,98.2,88.7,98.3,88.5,98Zm.2-2.2c-.2,0-.2-.3-.3-.2C88.2,95.9,88.7,96.1,88.7,95.8Zm.1-.5c-.3-.3.4-.6-.2-.6C88.7,95,88.2,95.3,88.8,95.3Zm.3-.9c0-.1.5-.8-.2-.8C89.1,94,88.7,94.3,89.1,94.4Zm0-10v-.3h.1l.2.2C89.3,84.2,89.3,84.4,89.1,84.4Zm.6,7c0-.4-.3-1.2.3-1.2,0-.8.3-1.1,0-1.7h-.3C89.9,89.6,89,91,89.7,91.4Zm.2,5.3a3.46,3.46,0,0,0-.3,1.2s.1-.2.1,0C90.3,97.9,90.2,96.8,89.9,96.7Zm.1,14.7c0,.9-.6,1.7-.1,2.4C89.9,113,90.6,112,90,111.4Zm3.3-28.8c-.3-1.2.5-1.3.5-2.1h-.6c-.5,1.2-1.4,4.8-.6,5.2-.3,0-.3.1-.3.3-.5-.2-.8,1.2-.6,1.3-.5.2-.3.9-.5,1.4-.2-.2-.3,0-.5.1,0,.5.2.5.3.9-.3-.3-.1,0-.4,0v.5c.1,0,.3,0,.3-.2,0,.2-.2.6,0,.6-.3.3-.2-.3-.3-.4a44.77,44.77,0,0,1-.8,6.4,58.41,58.41,0,0,0,2.4-8.7,5.34,5.34,0,0,1,.3-2.2C92.7,84.7,93.2,83.6,93.3,82.6ZM90,87.2c.3-.2-.4.6.2.5-.2-.6.8-.9.3-1.5C90,86.3,90.2,86.9,90,87.2Zm.2,23.1c-.2.5,0,.6.1.2C90.5,110.5,90.3,110.3,90.2,110.3Zm0-.3c.9-1.5.8-3.1.9-5.1C90.3,106.4,90.6,108.4,90.2,110Zm.1-24.9c.2.2,0,.6.3.6-.3-.5.3-.3.1-.6Zm.5-.1c-.1-.5.5-.5.3-.9C90.6,84.1,90.6,84.8,90.8,85Zm.9,17.7c-.6.3-.6,1-.5,1.8C91.7,104.2,91.2,103.1,91.7,102.7Zm-.3-27.5-.2.2c0-.3,0-.6.3-.6C91.7,75.1,91.1,75.2,91.4,75.2Zm.7,24.6c0,.1,0,.3-.3.3.3.6-.6,1.3-.1,2.1A4.34,4.34,0,0,0,92.1,99.8Zm0-21.4c.6-.5,1.3-1.7.8-2.2C92.7,76.9,92.3,77.5,92.1,78.4Zm.3,19.9c-.3,0-.5.9,0,.9A.75.75,0,0,0,92.4,98.3Zm1.1-6a13.45,13.45,0,0,0-.5,3.5A7.28,7.28,0,0,0,93.5,92.3Zm.9-15.9h-.3c-.3,1-.4,2.1-.6,3.1.3-.1.3.2.5.2C94.2,78.7,95.1,77.5,94.4,76.4Zm-.2,13.2h-.3a2.83,2.83,0,0,0-.2,2.2Zm.5-20.4c-.3.2-.6.2-.6.5C94.5,69.7,94.4,69.4,94.7,69.2Zm-.2,18.6a.36.36,0,0,1-.3.2c.1.3-.3.9.1,1A2,2,0,0,0,94.5,87.8Zm2.1-17.4c.9-.1.3-1.5,1.2-1.6-.1-2.1.9-3.1.9-5.1-1.4,0-1.5,2.5-1.4,3.1a8.09,8.09,0,0,0-1.2,3.7c-.2-.1-.2-.1-.3-.1q-.6,2.1-1.2,3.9c.4-.1,1.3-.6.8-1C96.5,72.8,96.9,71.9,96.6,70.4Zm-.4,10.4c-1.1.9-.8,2.1-.9,3.3Zm.1-1.5c-.1.5-.5.8-.3,1.4C96.3,80.3,96.9,79.4,96.3,79.3Zm0-14.1c.3.2.3-.4,0-.4Zm.3-2.1c.2,0,.2,0,.3-.1s0-.3-.2-.3C96.8,62.8,96.5,62.6,96.6,63.1Zm.5,39.1s-.1,0-.1.2C97.1,102.4,97.1,102.2,97.1,102.2Zm.7-42.1c-.1-.3.3-.6,0-.5C97.8,59.6,97.5,60.1,97.8,60.1Zm1.4-.2c.4-.1.1.4.4.1,2.5-6.6,5.8-13.3,7.5-20.4.8,0,.2-.9,1-.9.8-1.6,1.2-3.7,2.5-4.9a10.91,10.91,0,0,1,2.7-5.1c0-1.5,1.2-2,1.3-3.3,1.2-.6,1.4-2,2-2.9-.2,0-.3.1-.3,0,1-2.1,3.3-3.6,4.2-5.5.2,0,.2.1.3.3-.3-.6.1-.6.6-.6.2-.3,0-.8.2-1,0,.1,0,.3.1.1s.5-.1.5-.5c-.3.1-.3-.1-.5-.1.2.5-.6.6-.8.5,0-.3.5-.3.3-.8-.4.1-1,1.3-.6.9.2,1.5-1.3,1.2-1.5,2.4-6.3,7.8-10.8,16.9-14.4,26.7.8.3-.3,1.8-.6,2.4-.2-.1-.2-.4-.5-.3C102.2,51.4,100.5,55.4,99.2,59.9Zm.9,8.4c-.3.2-.3-.6-.5-.3.2.6-.4.8,0,1.2Zm-.6-14.1c0,.4.3.6.6.4v-.4Zm.1-.6.2.1c.3,0,.1.1.5,0,0-.1-.2-.1-.2-.3C99.9,53.3,99.9,53.5,99.6,53.6Zm.9,45.3c-.6-.2-.2.6-.6.5.2.3-.3.6,0,.6,0-.1.2-.1.3-.1C100.1,99.2,100.7,99.4,100.5,98.9Zm-.6-47.5v.1h.2v-.1Zm.3,14.8c0,.3-.3.3-.2.8C100.5,67,100.7,66.1,100.2,66.2Zm1.2-16c-.1.1-.1.3-.4.3,0,.3,0,.6.3.5C101.3,50.8,101.4,50.5,101.4,50.2Zm0,47.4c-.3,0-.3.1-.4.1V98C101.1,98.3,101.3,97.7,101.4,97.6Zm.2-47.4c0-.3.2-.6,0-.6,0,.1-.2.1-.3.1C101.1,50,101.4,49.7,101.6,50.2Zm.3,46.5c-.3,0-.1.5-.3.6C101.9,97.1,102,97.1,101.9,96.7Zm.4-48.9h-.5c.2.1.2.4.2.6C102.3,48.4,102.2,47.9,102.3,47.8Zm1.7,7c-1.3,1.5-1.6,4.2-2.1,6,.9-1.5,1.2-3.4,2.1-4.9C103.2,55.7,104.4,55.3,104,54.8Zm-1.8,41.4c0,.2-.3.2-.1.5C102.3,96.7,102.5,96.2,102.2,96.2Zm0-48.6c.2,0,.5,0,.5-.2-.3,0-.3-.1-.5-.1C102.3,47.5,102.2,47.5,102.2,47.6Zm.9,47.6a1.33,1.33,0,0,0-.6.9c.4,0,.3-.3.3-.6C103.2,95.6,103.2,94.7,103.1,95.2Zm.6-53.6v.1h.3v-.1Zm1.2,10.7h-.3c-.2.6-1,1.8-.3,2.2C104.6,53.6,105.2,53.2,104.9,52.3Zm-.6,40.6c.3.5-.2.3-.2.6C104.6,93.7,104.7,92.8,104.3,92.9Zm1-41.8c-.3,0-.5.1-.5.4C105.3,51.5,105.5,51.4,105.3,51.1Zm1.1,40.8c-.2,0-.8.2-.6.3C106.1,92,106.4,92,106.4,91.9Zm-.2-56c0,.1,0,.4.2.4,0-.1.2-.1.2-.3C106.4,36.1,106.4,36.1,106.2,35.9Zm.3,54.9c.6-.2.4-.8.8-1C106.8,90.1,106.5,90.2,106.5,90.8Zm.3,2.3v-.3h-.2v.3Zm11.9-60.3s.3,0,.3.1c-2.2,2.1-3.2,5.5-5,8.1.3.9-.6,1.1-.3,2.1a.6.6,0,0,0-.6.3c0,1.5-.9,3-1.7,4.4.5.8-.3.9,0,1.9-.3.9-1.5,2.2-1,3.1-.5,0-.2.6-.6.6-.6,3.4-2.1,6.1-3,9,.3-.3,0,0,.6.1a2,2,0,0,1-.1-.8c1.3-.3,1.3-1.8,2.7-2.1.2-.6.2-1.2.8-.9.2-.5,0-.6.2-.9.3,0,.1.3.5.3,0-.6.4-.9.8-1.4.3,0,.8,0,.8-.4-.5,0,0,.4-.5.3,0-.1-.2-.1-.3-.3.4,0,.8-.3,1.2-.3-.3-1,.8-.4.9-1.2-.3,0-.6,0-.6-.3.5,0,.5-.1.6-.3,0,.1-.3.4,0,.4s0-1.3.6-.9c0,.2-.6.2-.1.3,0-.1.1-.1.3-.3a.52.52,0,0,1,.1-.8c.3,0,1.4-.7.9-1.2.2.1-.3.5-.3.1.5-.4.6-1.4,1.3-1.4-.5,0,.2-.8.5-.3,0-.6.3-.5.2-1,.1,0,.3.1.4,0,.8-2.1,2.5-3.3,3.6-5.1a1.69,1.69,0,0,1,1-1.9c0-.1-.3-.1-.3-.3.4-.3.6-1.2,1-1.5-.2,0-.2-.3-.2-.5.8-.6.8-1.6,1.8-1.9.2-.5-.5-.1-.3-.5.5-.1.3-.6.8-.8-.3-.4,0-.8.6-.9,0-.6-.1-1.2.6-1.2.1-.3,0-.3-.2-.8.5,0,.6-.3.5-.8.5-.1.8-.8.5-.9.3,0,.6.4.8.1-.5-.1.1-.5-.3-.8.1,0,.1-.3.4-.3a3.32,3.32,0,0,1,.5-1.5c.3.4.6-.6.5-1.1.3.1.3-.1.5-.1.1-.9.1-2.1,1.2-2.2-.3-.4-.1-.9.3-.6a1.5,1.5,0,0,1-.5-1.2c.5.1.1-.5.6-.3-.1-.5-.6-2.1.2-2.6-.3-.6,0-1,0-1.5.5,0,.3-.3.6-.3.2-2.2,1.2-2.8.9-5.4-1.8.2-3.8,2-5,3.5C124.4,22.6,120.8,27.4,118.7,32.8ZM107.6,64.3c-.3,0-.3.3-.6.3,0,.3.3.1.5.3C107.3,64.4,107.6,64.6,107.6,64.3ZM107.4,34v.3C107.7,34.4,107.7,33.8,107.4,34Zm.9,56.4c-.3.3-.8.5-.6.9A.66.66,0,0,0,108.3,90.4Zm.2-26.7v-.3h-.3v.3Zm.4,24.1c-.3.2-1,.6-.6.9,0-.2.1-.2.3-.2A2.12,2.12,0,0,1,108.9,87.8Zm0-25h-.1c0,.3-.2.3,0,.5C108.9,63.2,108.8,62.9,108.9,62.8Zm.6,24v-.2h-.1v.3A.1.1,0,0,1,109.5,86.8Zm1.7-3.2c0,.2-.3.2-.2.5C111.3,84.2,111.5,83.6,111.2,83.6Zm.9-48.9c.4,0,.6-.4.3-.6C112.5,34.6,111.9,34.4,112.1,34.7Zm.3,24.5c.3-.3.8-.6.9-1C112.7,58.3,112.7,58.9,112.4,59.2Zm.1,22.9v-.3h-.1v.3Zm0-58v.1h.3v-.1Zm.5,58.6c.6,0,.3-.8,1-.8-.1-.2.3-.5,0-.5C113.6,82,113.1,82.3,113,82.7Zm.7-62.7c-.2-.5.2-.5.3-.6C114.2,19.9,113.9,19.9,113.7,20Zm.8,1.5c.2,0,0-.1-.2-.1C114.2,21.8,114.3,22,114.5,21.5Zm.1,35v-.2h-.3c.2.2.2.2.2.3A.1.1,0,0,0,114.6,56.5Zm2.7-4.2c-1,.8-1.3,2.1-2.1,3.1.3,0,.2-.3.6-.3C115.8,54.1,117.3,53.6,117.3,52.3Zm0-.2v.1l.2-.1Zm.6-.3c-.2.1-.3.3-.5.3C117.6,52.1,117.8,52.1,117.9,51.8Zm1.1-1.2v-.3c-.3,0-.6.4-.5.4S118.7,50.6,119,50.6Zm.3,24.2c.3-.1.9-.9.6-.9C119.7,74.2,119.3,74.3,119.3,74.8Zm.1-60.9c.4-.1.9-.3.9-.8A1,1,0,0,0,119.4,13.9Zm1.5,33.4c.4-.9,1.5-1.9,1.6-2.8a11.16,11.16,0,0,0-2.4,4.2,1.06,1.06,0,0,1,1.2-1C121.5,47.2,120.9,47.6,120.9,47.3Zm1.8-.6c0,.2-.3.2-.2.5C122.9,47.2,122.9,46.6,122.7,46.7Zm.9-.9c-.6-.1-.5.3-.8.5C123.3,46.3,123.6,46.1,123.6,45.8Zm1.5-2.4h-.5a11.61,11.61,0,0,1-1.3,2.2c.5-.1.5-.5.9-.5,0-.6.4-.7.8-1C125,43.9,125.1,43.7,125.1,43.4Zm.2-.7H125c.1.3,0,.3,0,.5C125.3,43.3,125.4,43,125.3,42.7Zm.6-1.5v.5c-.3,0-.6.1-.5.5.2,0,.2,0,.3.1-.2-.5.1-.5.3-.6A1.09,1.09,0,0,1,125.9,41.2Zm-.2,1.3c0,.1-.3.1-.3.5C125.7,43,125.9,42.5,125.7,42.5Zm3.8-7.6c-.6,0-.6.4-.4,1h-.8c.4.4-.2.3-.3.6.1.6-.3.9-.8,1.3,0,.3.3.3.3.8-.3-.1-.3.1-.6,0,0,.8-.1,1.2-.6,1.4,0,.3.2.3.2.3a.78.78,0,0,0-.6.8c.9,0,1.5-.6,1-1.2l.9-.6c0-.1-.2-.1-.3-.3h.6c.3-1.2.6-2.6,1.5-3.1A3.08,3.08,0,0,0,129.5,34.9ZM126,38.2c.5.3.5-.6.1-.5C126.2,38,126,38,126,38.2Zm.2,3.7c-.1,0-.1-.1-.1-.3C126,41.8,126.2,42.1,126.2,41.9Zm.4-5.1c.8-.1.8-1,1.5-1.2-.5-.6,0-1.2-.1-1.2C127.4,35.2,127.1,36.1,126.6,36.8Zm.9-2.8c-.2,0-.5,0-.5.2,0,0,.2,0,.2.1l-.2-.1h-.2v.1h.3c0,.3-.2.6.1.3C127.2,34.1,127.7,34.3,127.5,34Zm.2-.6s.2,0,.2-.1v-.2h-.3C127.7,33.2,127.7,33.2,127.7,33.4Zm.3,13.3c0,.2-.2.6,0,.3C128.3,47,127.8,46.3,128,46.7Zm.1-12.9v.3C128.6,34.3,128.4,33.7,128.1,33.8Zm.2,12.5c.1-.5,1.3-.9.8-1.4C128.4,45.4,128.1,46.1,128.3,46.3Zm.3-13.8v-.3h-.3v.3Zm-.2,1v.1h.3v-.3A.77.77,0,0,1,128.4,33.5Zm.6-.9c-.5,0-.2.4-.3.8A1.14,1.14,0,0,0,129,32.6Zm.6,11.1c-.3.1-.2.6-.6.8,0,.1.1.1.3.3a.77.77,0,0,1-.3.1C129.5,44.9,130.1,44.2,129.6,43.7Zm-.4-11.2c.6-.8.8-1.5,1.4-2.2a.9.9,0,0,1-.5-.1C130.1,31,129,31.7,129.2,32.5Zm4.5-9c.2,1.4-1,2.5-.6,3.5-.6-.2-.3.4-.3.8a14.47,14.47,0,0,0-1,2.5c-.4,0-.1.4-.6.3v.8c-.9.8-.9,2.1-1.8,2.9,0,.4.3.4.1.8.5.1.3,0,.8,0,1.1-2.4,2.2-4.4,3-6.6-.1-.6,0-1.2.6-1.2.1-.5-.3,0-.3-.3.8-.6.3-2.1.8-3C134,23.6,134,23.3,133.7,23.5ZM131,41c-.4.6-.6,1.6-1,2.4A5,5,0,0,0,131,41Zm-.9-12.1c.3.1.3-.4.1-.3C130.2,28.7,129.9,28.6,130.1,28.9Zm.3-.8c0-.1.2-.6-.3-.4C130.1,28,130.2,28.1,130.4,28.1Zm1-2.5c-.1-.3,0-.8-.3-.6C131.1,25.3,131.1,25.4,131.4,25.6Zm.3,81.1c-.1,0-.1-.2-.3-.2.2.2,0,.2-.1.3a.6.6,0,0,1,.4.1v-.2Zm3.2-72.9c-.8.9-1,2.2-2.1,2.9,0,1.6-1.3,2.5-1.2,3.9C132.5,38.2,134.3,36.1,134.9,33.8Zm-3.2-11.4h.3V22h-.3Zm2.4,86-.5-.3c0,.2,0,.5-.3.6C133.8,108.7,133.7,108.4,134.1,108.4Zm-.6-3.2c.3,0,.3.2.5.2,0-.3.5-.5.2-1.2.6,0,.5-.3.9-.5-.1-.3-.4-.3-.4-.8-.2,0-.3.2-.6.2a1.93,1.93,0,0,1,0,1.5c-.1,0-.1-.3-.3-.2C133.8,104.9,133.2,104.8,133.5,105.2Zm.3-81.9h.4c-.1-.6.5-.8.2-1.4h-.3C134,22.6,133.7,22.7,133.8,23.3Zm.8,83.3c-.2-.1-.2-.3-.3-.1.2.1-.3.5,0,.5C134.3,106.7,134.3,106.6,134.6,106.6Zm1.2-.5a1,1,0,0,0-1.2-.3c0,.3.1.6,0,.8s.1.2.1.3c-.1.3-.6.4-.3,1,.5,0,.3-.5.8-.5C134.9,106.7,135.9,106.7,135.8,106.1Zm-1.4-88.3v.3h.5c-.2-.2,0-.3,0-.3Zm.5,3.3h-.3v.3C134.7,21.2,134.9,21.2,134.9,21.1Zm0,12.6c.6,0,1-.9.5-1C135.3,33.1,134.9,33.2,134.9,33.7Zm.1-13.8c.2-.1.5-.1.5-.5-.1.1-.3,0-.5,0C135.2,19.6,135.2,19.7,135,19.9Zm.3,83.7c0-.3.4-.3.1-.6a.37.37,0,0,1-.3.2C135.2,103.3,135.2,103.6,135.3,103.6Zm.8-2c-.5.3-.3-.3-.6-.2C135.3,101.9,136.4,101.8,136.1,101.6Zm-.2-70h-.2C135.8,32.2,136.1,32.2,135.9,31.6Zm0,0c.5,0,.2-.4.5-.6C135.9,31,136.2,31.6,135.9,31.6Zm.6,69.9v-.3c-.3,0-.3-.2-.4-.3C136.1,101.3,136.1,101.6,136.5,101.5Zm.2-71.1v-.1l.2-.1v-.3h-.2V30h-.2v.5h.2Zm5.4,67.2c-1.5,2.5-5.1,4.3-5.5,7.3a1.41,1.41,0,0,1,1.2-1c.2-.3,0-.6.2-.8,0,.1.1.3.3.1C138.9,101.2,142.1,99.7,142.1,97.6Zm-5.6,2.8v.2h.2v-.3Zm.3-.1a.3.3,0,0,0,.3-.4Zm.8-1.1v.3C138,99.7,137.9,98.9,137.6,99.2Zm1,.2v.5c-.6,0-.3.6-.9.6C137.9,100,138,99.5,138.6,99.4Zm-.7,8.8c0,.1,0,.5.1.5C138.2,108.5,138.2,108.1,137.9,108.2Zm1.5-5.1c0,.3-.5.3-.3.8C139.7,104,139.7,103.3,139.4,103.1Zm3.4-9.4c0-.5,0-.8.5-.8C143,93.1,143.3,93.7,142.8,93.7Zm.3.4c-.1-.3,0-.6.3-.6A.6.6,0,0,1,143.1,94.1Zm.8-1c-.4-.2.3-.5.2-.8.2,0,.2.3.3.3C144.5,92.9,143.7,92.8,143.9,93.1Zm2.1-2.9c-.5.1-.6.8-.3.9C145.7,90.8,146,90.7,146,90.2Zm.1,4.2v.3h.2v-.1h.2v-.2Zm.2-4.3c.5-.2.5-.6.9-.8v-.5A1.85,1.85,0,0,0,146.3,90.1Zm.6,5.1c-.1.3-.4.6-.3,1C147.3,96.1,147.8,95.2,146.9,95.2Zm.9-7.1c-.3,0-.8.5-.5.6C147.5,88.4,147.8,88.4,147.8,88.1Zm.1-4.6c0,.5-.4.5-.3.9C147.5,84.7,147.3,83.5,147.9,83.5Zm.5,3.7h-.5a1.09,1.09,0,0,1-.1.5A.56.56,0,0,0,148.4,87.2Zm.3,2.4c-.3.2-.3-.1-.4-.1,0,.3,0,.1.1.4h.3v-.3Zm1.2-5.8c.3.3-.1.3-.1.5C149.6,84.2,149.6,83.6,149.9,83.8Z" transform="translate(-6.2 -7.7)"/></svg>